<?xml version="1.0" standalone="no"?>
<!DOCTYPE svg PUBLIC "-//W3C//DTD SVG 20010904//EN"
 "http://www.w3.org/TR/2001/REC-SVG-20010904/DTD/svg10.dtd">
<svg version="1.0" xmlns="http://www.w3.org/2000/svg"
 width="225.000000pt" height="225.000000pt" viewBox="0 0 225.000000 225.000000"
 preserveAspectRatio="xMidYMid meet">
<metadata>
Created by potrace 1.14, written by Peter Selinger 2001-2017
</metadata>
<g transform="translate(0.000000,225.000000) scale(0.100000,-0.100000)"
fill="#000000" stroke="none">
<path d="M440 1750 c0 -3 -2 -36 -4 -75 -5 -87 -22 -168 -48 -220 l-20 -40 26
24 c35 33 33 20 -5 -32 -31 -42 -31 -43 -24 -129 4 -60 3 -88 -4 -88 -6 0 -12
8 -13 18 -1 9 -2 24 -4 32 -1 8 -3 38 -4 65 l-2 50 -13 -51 c-19 -79 -19 -214
1 -284 9 -33 20 -63 24 -65 12 -8 -1 -46 -14 -42 -23 7 -48 77 -49 141 -2 73
-10 74 -25 4 -29 -139 41 -232 162 -214 94 14 112 18 133 32 27 17 131 25 156
12 25 -13 31 -5 16 20 -10 17 -64 50 -113 71 -5 2 -6 -8 -2 -23 6 -26 5 -27
-23 -23 -38 6 -51 15 -51 33 0 10 9 14 27 12 34 -4 41 20 15 52 -21 26 -66 30
-89 8 -8 -9 -17 -33 -20 -55 -5 -35 -1 -44 23 -67 16 -14 38 -27 49 -27 14 -1
15 -3 5 -6 -23 -6 -88 24 -100 46 -7 14 -6 31 4 59 20 56 13 145 -19 232 -35
98 -37 152 -6 182 l23 23 -11 -22 c-6 -12 -11 -32 -11 -45 1 -19 3 -17 16 12
8 19 36 55 63 80 41 38 81 95 81 115 0 3 -17 -6 -37 -20 -38 -25 -62 -32 -64
-17 -1 4 -3 36 -4 72 -1 40 -10 82 -23 110 -11 25 -21 43 -22 40z"/>
<path d="M522 1675 c-7 -14 -12 -47 -12 -73 0 -43 1 -45 17 -30 11 12 17 36
18 73 2 60 -5 69 -23 30z"/>
<path d="M1231 1621 c-35 -16 -62 -67 -81 -149 -7 -28 -16 -55 -21 -58 -16
-10 -9 -24 9 -17 15 6 15 5 4 -10 -8 -9 -29 -21 -49 -28 -39 -13 -32 -31 12
-31 38 0 67 18 95 60 45 67 95 100 65 42 -19 -37 -19 -100 -1 -145 l15 -35
-54 -46 c-46 -38 -55 -52 -59 -87 -11 -85 -12 -134 -5 -153 7 -17 8 -17 8 4 1
12 5 22 10 22 4 0 6 -12 3 -27 -3 -21 -2 -25 7 -17 7 6 14 24 17 40 9 50 26
54 18 4 -7 -44 -7 -45 13 -27 28 24 36 21 18 -7 -15 -23 -15 -25 6 -36 32 -18
81 -6 141 34 52 36 91 50 53 20 -14 -12 -16 -18 -7 -21 10 -4 10 -8 1 -19 -9
-11 -8 -14 7 -14 11 0 37 -9 59 -19 38 -19 39 -19 12 -20 -15 -1 -41 6 -57 14
-18 10 -47 14 -73 11 -48 -4 -125 -39 -133 -61 -3 -7 -12 -16 -20 -19 -9 -3
-12 -2 -9 5 10 14 -4 81 -15 74 -5 -3 -10 4 -12 15 -3 18 -7 16 -32 -17 -26
-32 -30 -45 -32 -110 0 -40 1 -73 4 -73 3 0 18 15 34 33 28 32 28 31 -4 -25
-18 -32 -36 -58 -39 -58 -4 0 -10 17 -15 38 -4 20 -8 39 -9 42 -9 39 -42 113
-63 144 -45 65 -92 97 -148 101 -27 1 -66 12 -87 24 -21 12 -48 23 -60 25 -30
4 -87 -13 -114 -34 l-23 -18 35 -21 c26 -15 35 -17 35 -7 0 16 35 27 65 21 11
-2 24 -4 28 -4 4 -1 3 -10 -3 -21 -10 -18 -8 -20 22 -20 98 -2 163 -28 163
-66 0 -23 -40 -26 -133 -9 -51 10 -62 10 -58 -1 4 -10 -3 -10 -34 1 -37 13
-140 12 -162 -1 -23 -15 -146 -41 -186 -40 -23 1 -42 -3 -42 -9 0 -16 93 -97
130 -113 65 -28 218 -18 265 18 6 4 36 17 68 29 106 39 211 23 281 -44 22 -20
26 -29 16 -35 -9 -6 -5 -10 16 -12 16 -2 -12 -4 -63 -4 -50 0 -90 3 -88 6 2 3
-7 6 -20 6 -13 0 -22 -3 -20 -6 7 -11 -90 -6 -97 4 -5 7 -8 8 -8 1 0 -15 -50
-17 -50 -2 0 7 -3 8 -8 2 -8 -12 -82 -15 -82 -3 0 4 -5 8 -11 8 -5 0 -7 -4 -4
-10 3 -5 1 -10 -4 -10 -6 0 -11 6 -11 13 0 8 -3 9 -8 1 -9 -14 -135 -14 -144
0 -5 8 -8 7 -8 -1 0 -7 -5 -13 -11 -13 -5 0 -7 4 -4 10 3 5 2 10 -4 10 -5 0
-11 -5 -13 -12 -3 -8 -11 -9 -24 -3 -27 12 -54 14 -60 4 -3 -5 -10 -9 -15 -9
-6 0 -8 4 -5 8 7 12 -26 12 -41 0 -7 -6 -14 -5 -18 2 -5 8 -11 8 -20 0 -24
-20 -31 -3 -32 79 -2 90 -4 96 -33 104 -16 4 -24 -1 -32 -19 -8 -18 -16 -22
-34 -18 -32 8 -48 -4 -32 -24 10 -12 10 -14 1 -8 -8 4 -13 2 -13 -5 0 -8 -4
-8 -13 -1 -7 6 -23 9 -35 5 -16 -4 -22 -13 -23 -37 -1 -17 -2 -42 -3 -55 0
-13 -7 -26 -15 -29 -9 -3 -11 0 -6 8 5 9 4 11 -3 6 -7 -4 -12 -23 -12 -42 0
-28 4 -34 21 -34 13 0 20 -6 18 -18 -7 -75 13 -108 52 -84 15 10 18 8 21 -11
3 -20 9 -22 73 -25 l70 -2 0 72 0 73 870 0 870 0 0 -70 0 -70 70 0 c66 0 70 1
73 23 3 18 6 21 17 12 8 -7 23 -9 35 -5 17 5 20 15 20 56 0 42 3 49 20 49 16
0 20 7 20 34 0 25 -5 35 -20 39 -16 4 -20 14 -20 50 0 53 -18 74 -49 57 -18
-9 -21 -8 -21 9 0 24 -32 36 -58 22 -16 -9 -19 -7 -18 12 1 18 -5 23 -31 25
-36 4 -34 10 -38 -93 -4 -97 -3 -95 -30 -95 -14 0 -25 6 -25 13 0 8 -2 9 -8 1
-9 -15 -165 -18 -156 -3 3 6 -4 5 -16 -3 -18 -10 -24 -10 -27 0 -3 6 -9 12
-14 12 -6 0 -7 -4 -4 -10 9 -14 -8 -12 -24 2 -11 10 -13 10 -7 1 4 -7 2 -13
-3 -13 -6 0 -11 5 -11 10 0 6 -5 10 -11 10 -5 0 -8 -4 -5 -9 4 -5 -2 -8 -11
-6 -10 2 -18 4 -18 5 0 7 -66 6 -70 -1 -4 -5 -11 -9 -16 -9 -6 0 -8 3 -5 8 6
10 -210 9 -220 0 -10 -11 -26 -10 -20 1 6 10 -12 9 -29 0 -5 -3 -32 -6 -60 -6
-27 0 -45 1 -38 4 7 2 10 10 7 17 -3 7 6 21 20 30 23 15 26 15 26 1 0 -11 16
-1 46 27 35 33 56 45 92 50 26 4 54 9 62 11 27 6 94 44 121 68 14 13 32 25 40
25 8 1 23 5 34 10 18 7 19 6 6 -9 -8 -10 -11 -20 -8 -23 15 -15 -35 -47 -77
-51 -25 -2 -56 -8 -68 -13 -20 -7 -17 -9 20 -11 23 -1 47 -3 52 -4 6 -1 13 -3
16 -4 4 0 1 -7 -5 -14 -8 -11 -6 -13 11 -12 12 1 58 -9 102 -22 104 -30 138
-30 173 2 16 15 22 25 13 23 -8 -1 -33 2 -55 7 -45 10 -44 9 -65 18 -8 3 -40
13 -70 22 l-55 15 58 -4 c51 -4 61 -2 85 21 15 13 43 31 62 39 l35 15 -40 25
c-31 19 -52 24 -90 23 -52 -2 -63 0 -130 30 -22 10 -56 22 -75 26 -19 4 -68
21 -107 37 -60 25 -73 34 -73 52 0 13 9 31 20 41 20 18 21 18 63 -23 42 -41
43 -42 67 -25 14 10 35 28 48 40 13 13 28 23 33 23 6 0 9 15 8 33 -4 48 8 74
41 89 32 14 51 42 51 73 -2 86 -24 118 -88 131 -18 3 -39 17 -48 30 -23 35
-72 57 -112 51 -26 -5 -35 -2 -39 11 -24 74 -73 96 -143 63z m856 -853 c-3 -8
-6 -5 -6 6 -1 11 2 17 5 13 3 -3 4 -12 1 -19z"/>
<path d="M728 1587 c9 -10 11 -25 6 -39 -10 -35 -44 -52 -44 -23 0 8 -4 15 -9
15 -15 0 -20 -27 -11 -59 5 -18 5 -33 -1 -36 -5 -4 -9 -3 -9 2 0 10 -20 -19
-20 -29 0 -5 10 -18 22 -30 28 -28 69 -145 62 -175 -5 -17 -2 -23 10 -23 9 0
21 -10 27 -22 6 -13 23 -33 39 -45 l28 -23 25 24 c35 32 43 53 52 121 7 56 6
58 -11 45 -16 -14 -17 -13 -11 9 3 13 2 34 -3 47 -12 30 2 31 41 3 85 -60 73
-180 -28 -298 l-37 -43 35 17 c19 10 42 27 52 38 22 26 31 18 18 -17 -6 -14
-8 -26 -4 -26 9 0 53 53 70 85 8 17 17 32 19 34 2 2 19 -10 39 -28 41 -35 72
-43 56 -13 -5 10 -17 25 -26 32 -9 7 -21 23 -27 34 -9 17 -8 19 3 9 15 -15 75
-18 83 -5 3 5 -1 18 -9 29 -10 14 -23 19 -47 17 -18 -2 -25 -1 -14 2 15 5 11
10 -22 30 -34 21 -44 34 -57 76 -8 28 -15 71 -15 94 0 58 -14 85 -58 113 -20
13 -49 32 -64 43 -16 10 -28 14 -28 8 0 -7 -8 -9 -22 -4 -13 4 -34 8 -48 10
-14 1 -36 6 -50 10 -22 7 -24 6 -12 -9z"/>
<path d="M1701 1359 c-20 -8 -22 -11 -10 -26 8 -9 13 -24 11 -33 -4 -25 30
-50 88 -65 29 -8 61 -21 71 -31 18 -16 19 -16 20 7 0 22 1 22 9 4 10 -26 5
-137 -8 -161 -11 -21 -9 -105 3 -124 6 -9 10 -9 17 1 5 9 6 4 2 -15 -7 -28 -6
-29 22 -22 36 9 64 40 65 75 0 14 2 33 4 42 5 28 -16 121 -38 167 -11 25 -40
65 -64 90 -24 24 -49 52 -56 61 -26 35 -88 49 -136 30z"/>
<path d="M910 1321 c0 -6 5 -13 11 -17 6 -3 9 -20 6 -38 -6 -39 -16 -87 -22
-103 -2 -6 3 -19 10 -30 14 -17 14 -17 15 0 0 10 8 34 18 55 22 44 22 81 -2
116 -16 26 -36 35 -36 17z"/>
<path d="M1042 1113 c-8 -14 -2 -27 29 -63 37 -43 39 -44 39 -19 0 14 -13 43
-29 63 -27 33 -31 35 -39 19z"/>
<path d="M1045 996 l-19 -34 35 -57 34 -56 7 33 c9 42 2 80 -21 118 l-18 30
-18 -34z"/>
<path d="M1945 893 c-22 -7 -65 -18 -95 -23 -33 -6 -67 -21 -85 -36 -17 -14
-22 -23 -13 -20 12 3 15 1 11 -9 -13 -35 101 -47 151 -15 30 18 81 92 74 108
-2 4 -21 2 -43 -5z"/>
<path d="M1203 663 c9 -2 23 -2 30 0 6 3 -1 5 -18 5 -16 0 -22 -2 -12 -5z"/>
</g>
</svg>
